<?xml version="1.0" standalone="no"?>
<!DOCTYPE svg PUBLIC "-//W3C//DTD SVG 20010904//EN"
 "http://www.w3.org/TR/2001/REC-SVG-20010904/DTD/svg10.dtd">
<svg version="1.0" xmlns="http://www.w3.org/2000/svg"
 width="1305.000000pt" height="1305.000000pt" viewBox="0 0 1305.000000 1305.000000"
 preserveAspectRatio="xMidYMid meet">

<g transform="translate(0.000000,1305.000000) scale(0.100000,-0.100000)"
fill="#000000" stroke="none">
<path d="M6425 12984 c-166 -18 -389 -81 -519 -146 -87 -44 -664 -383 -2386
-1406 -1397 -829 -1886 -1123 -1957 -1175 -300 -222 -523 -580 -613 -986 l-21
-94 4 -2661 c3 -2026 7 -2675 16 -2721 35 -172 145 -428 258 -600 85 -128 281
-326 408 -412 151 -101 4147 -2473 4289 -2545 78 -40 258 -101 367 -124 121
-27 467 -27 589 0 134 29 286 83 395 140 201 106 4122 2437 4288 2548 77 52
234 204 313 303 135 168 247 401 317 660 l22 80 2 2674 3 2674 -30 126 c-17
69 -54 184 -82 254 -92 230 -195 384 -369 552 -153 147 -58 88 -1309 832
-1817 1082 -3087 1831 -3195 1886 -93 46 -228 91 -350 117 -98 20 -346 34
-440 24z m339 -289 c107 -16 275 -69 371 -117 70 -36 4141 -2452 4230 -2511
92 -61 264 -239 330 -340 63 -97 131 -238 163 -337 30 -90 54 -200 39 -176
-41 65 -94 127 -143 163 -139 106 -357 112 -567 14 -48 -22 -3547 -2188 -4042
-2502 -418 -265 -624 -526 -690 -872 -13 -71 -15 -384 -15 -2594 0 -2763 -4
-2583 60 -2735 50 -120 148 -228 235 -259 37 -14 46 -29 18 -29 -10 -1 -65 -5
-121 -10 -186 -17 -372 14 -558 91 -73 30 -4193 2472 -4314 2557 -88 61 -253
230 -318 325 -93 134 -175 326 -218 507 -17 71 -19 212 -21 2633 -4 2784 -6
2640 52 2842 34 120 139 331 213 430 75 101 216 236 307 297 99 65 4156 2475
4235 2515 84 43 230 90 334 107 110 19 300 19 420 1z m1486 -6814 c6 -12 10
-95 10 -201 0 -170 1 -182 18 -175 72 30 157 46 242 48 119 2 148 -5 156 -40
9 -33 -68 -355 -95 -399 l-18 -29 -134 0 c-122 0 -139 -2 -197 -26 -159 -67
-266 -158 -323 -274 -32 -65 -34 -76 -34 -172 0 -119 12 -143 87 -181 39 -19
75 -25 235 -37 209 -16 283 -33 373 -87 208 -125 266 -474 141 -846 -69 -207
-191 -401 -345 -550 l-91 -88 5 -174 c5 -180 0 -232 -28 -263 -24 -27 -241
-149 -260 -145 -34 6 -42 48 -42 216 0 89 -3 162 -7 162 -5 0 -44 -12 -88 -27
-67 -22 -99 -26 -195 -27 -136 -1 -187 12 -196 51 -8 32 69 364 95 408 19 33
5 32 186 19 111 -8 185 9 300 66 101 51 171 111 228 198 58 88 88 170 94 262
7 101 -8 154 -61 206 -55 55 -110 71 -282 79 -239 12 -339 42 -434 131 -152
143 -169 474 -40 796 72 179 204 370 333 480 l55 48 4 199 c3 184 5 202 24
228 24 31 230 163 256 163 10 0 22 -9 28 -19z m2148 -2376 c2 -111 -1 -155
-10 -166 -18 -23 -1026 -631 -1055 -637 l-23 -4 2 168 3 169 525 312 c289 171
532 311 540 310 12 -2 15 -28 18 -152z"/>
</g>
</svg>
